# xmcd CD database file
#
# Track frame offsets:
#	150
#	14387
#	28845
#	40268
#	49794
#	64785
#	73517
#	84458
#	101351
#	112674
#	131425
#
# Disc length: 1969 seconds
#
# Revision: 0
# Processed by: cddbd v1.5.2PL0 Copyright (c) Steve Scherf et al.
# Submitted via: CDex 1.70beta2
#
DISCID=8607af0b
DTITLE=Georgie Fame - The Third Face Of Fame
DYEAR=1900
DGENRE=Blues
TTITLE0=The Ballad of Bonnie and Clyde
TTITLE1=When I'm Sixty Four
TTITLE2=Ask Me Nice
TTITLE3=Exactly Like You
TTITLE4=Someone To Watch Over Me
TTITLE5=Blue Prelude
TTITLE6=Bullets Laverne
TTITLE7=This Is Always
TTITLE8=Side By Side
TTITLE9=St. James Infirmary
TTITLE10=Mellow Yellow
EXTD=
EXTT0=
EXTT1=
EXTT2=
EXTT3=
EXTT4=
EXTT5=
EXTT6=
EXTT7=
EXTT8=
EXTT9=
EXTT10=
PLAYORDER=
